<svg width="178" height="39" viewBox="0 0 178 39" fill="none" xmlns="http://www.w3.org/2000/svg">
<path d="M40.3828 38.2165H35.3379V13.0095H40.3828V25.613L49.7695 13.0095H55.5L47.5371 23.6442L55.5 38.2165H49.7695L44.2324 28.0212L40.3828 33.1716V38.2165Z" fill="white"/>
<path d="M61.8105 38.2165H57.0117V19.3903H58.1719L59.7539 21.2184C60.5273 20.5153 61.4004 19.9763 62.373 19.6013C63.3574 19.2145 64.3828 19.0212 65.4492 19.0212C66.5977 19.0212 67.6816 19.2438 68.7012 19.6891C69.7207 20.1227 70.6113 20.7263 71.373 21.4997C72.1348 22.2614 72.7324 23.1579 73.166 24.1891C73.6113 25.2087 73.834 26.2985 73.834 27.4587V38.2165H69.0352V27.4587C69.0352 26.9665 68.9414 26.5036 68.7539 26.07C68.5664 25.6247 68.3086 25.238 67.9805 24.9099C67.6523 24.5817 67.2715 24.3239 66.8379 24.1364C66.4043 23.9489 65.9414 23.8552 65.4492 23.8552C64.9453 23.8552 64.4707 23.9489 64.0254 24.1364C63.5801 24.3239 63.1934 24.5817 62.8652 24.9099C62.5371 25.238 62.2793 25.6247 62.0918 26.07C61.9043 26.5036 61.8105 26.9665 61.8105 27.4587V38.2165Z" fill="white"/>
<path d="M95.4551 28.6364C95.4551 30.0427 95.2031 31.3552 94.6992 32.5739C94.1953 33.7809 93.5098 34.8298 92.6426 35.7204C91.7754 36.5993 90.7559 37.2966 89.584 37.8122C88.4238 38.3161 87.1758 38.5681 85.8398 38.5681C84.5156 38.5681 83.2676 38.3161 82.0957 37.8122C80.9355 37.2966 79.916 36.5993 79.0371 35.7204C78.1699 34.8298 77.4844 33.7809 76.9805 32.5739C76.4766 31.3552 76.2246 30.0427 76.2246 28.6364C76.2246 27.2067 76.4766 25.8825 76.9805 24.6638C77.4844 23.445 78.1699 22.3962 79.0371 21.5173C79.916 20.6266 80.9355 19.9294 82.0957 19.4255C83.2676 18.9216 84.5156 18.6696 85.8398 18.6696C87.1758 18.6696 88.4238 18.9099 89.584 19.3903C90.7559 19.8591 91.7754 20.5329 92.6426 21.4118C93.5098 22.279 94.1953 23.3278 94.6992 24.5583C95.2031 25.777 95.4551 27.1364 95.4551 28.6364ZM90.6211 28.6364C90.6211 27.863 90.4922 27.1657 90.2344 26.5446C89.9883 25.9118 89.6484 25.3727 89.2148 24.9274C88.7812 24.4704 88.2715 24.1247 87.6855 23.8903C87.1113 23.6442 86.4961 23.5212 85.8398 23.5212C85.1836 23.5212 84.5625 23.6442 83.9766 23.8903C83.4023 24.1247 82.8984 24.4704 82.4648 24.9274C82.043 25.3727 81.709 25.9118 81.4629 26.5446C81.2168 27.1657 81.0938 27.863 81.0938 28.6364C81.0938 29.363 81.2168 30.0368 81.4629 30.6579C81.709 31.279 82.043 31.8181 82.4648 32.2751C82.8984 32.7321 83.4023 33.0954 83.9766 33.3649C84.5625 33.6227 85.1836 33.7516 85.8398 33.7516C86.4961 33.7516 87.1113 33.6286 87.6855 33.3825C88.2715 33.1364 88.7812 32.7907 89.2148 32.3454C89.6484 31.9001 89.9883 31.361 90.2344 30.7282C90.4922 30.0954 90.6211 29.3981 90.6211 28.6364Z" fill="white"/>
<path d="M114.668 38.2165H108.797L105.053 32.4509L101.273 38.2165H95.4023L102.275 28.5661L95.4023 19.2849H101.273L105.053 24.6813L108.797 19.2849H114.668L107.777 28.5661L114.668 38.2165Z" fill="white"/>
<path d="M121.945 38.2165L114.773 19.3903H120.24L124.354 31.1325L128.449 19.3903H133.934L126.762 38.2165H121.945Z" fill="white"/>
<path d="M141.422 14.2751C141.422 14.7204 141.334 15.1364 141.158 15.5231C140.994 15.9099 140.766 16.2497 140.473 16.5427C140.18 16.8239 139.834 17.0524 139.436 17.2282C139.049 17.3923 138.633 17.4743 138.188 17.4743C137.742 17.4743 137.32 17.3923 136.922 17.2282C136.535 17.0524 136.195 16.8239 135.902 16.5427C135.621 16.2497 135.393 15.9099 135.217 15.5231C135.053 15.1364 134.971 14.7204 134.971 14.2751C134.971 13.8415 135.053 13.4313 135.217 13.0446C135.393 12.6462 135.621 12.3063 135.902 12.0251C136.195 11.7321 136.535 11.5036 136.922 11.3395C137.32 11.1638 137.742 11.0759 138.188 11.0759C138.633 11.0759 139.049 11.1638 139.436 11.3395C139.834 11.5036 140.18 11.7321 140.473 12.0251C140.766 12.3063 140.994 12.6462 141.158 13.0446C141.334 13.4313 141.422 13.8415 141.422 14.2751ZM140.596 38.2165H135.762V19.3903H140.596V38.2165Z" fill="white"/>
<path d="M149.104 38.2165H144.27V11.902H149.104V38.2165Z" fill="white"/>
<path d="M157.611 38.2165H152.777V11.902H157.611V38.2165Z" fill="white"/>
<path d="M168.773 33.611C168.961 33.6696 169.148 33.7106 169.336 33.7341C169.523 33.7458 169.711 33.7516 169.898 33.7516C170.367 33.7516 170.818 33.6872 171.252 33.5583C171.686 33.4294 172.09 33.2477 172.465 33.0134C172.852 32.7673 173.191 32.4743 173.484 32.1345C173.789 31.7829 174.035 31.3962 174.223 30.9743L177.738 34.5075C177.293 35.1403 176.777 35.7087 176.191 36.2126C175.617 36.7165 174.99 37.1442 174.311 37.4958C173.643 37.8474 172.934 38.111 172.184 38.2868C171.445 38.4743 170.684 38.5681 169.898 38.5681C168.574 38.5681 167.326 38.322 166.154 37.8298C164.994 37.3376 163.975 36.652 163.096 35.7731C162.229 34.8942 161.543 33.8513 161.039 32.6442C160.535 31.4255 160.283 30.0895 160.283 28.6364C160.283 27.1481 160.535 25.7888 161.039 24.5583C161.543 23.3278 162.229 22.279 163.096 21.4118C163.975 20.5446 164.994 19.8708 166.154 19.3903C167.326 18.9099 168.574 18.6696 169.898 18.6696C170.684 18.6696 171.451 18.7634 172.201 18.9509C172.951 19.1384 173.66 19.4079 174.328 19.7595C175.008 20.111 175.641 20.5446 176.227 21.0602C176.812 21.5641 177.328 22.1325 177.773 22.7653L168.773 33.611ZM171.234 23.7145C171.012 23.6325 170.789 23.5798 170.566 23.5563C170.355 23.5329 170.133 23.5212 169.898 23.5212C169.242 23.5212 168.621 23.6442 168.035 23.8903C167.461 24.1247 166.957 24.4645 166.523 24.9099C166.102 25.3552 165.768 25.8942 165.521 26.527C165.275 27.1481 165.152 27.8513 165.152 28.6364C165.152 28.8122 165.158 29.0114 165.17 29.2341C165.193 29.4567 165.223 29.6852 165.258 29.9196C165.305 30.1423 165.357 30.3591 165.416 30.57C165.475 30.7809 165.551 30.9684 165.645 31.1325L171.234 23.7145Z" fill="white"/>
<path d="M6.50391 9H5.42578V5.05664H1.99219V9H0.919922V0.46875H1.99219V4.13672H5.42578V0.46875H6.50391V9Z" fill="white"/>
<path d="M7.99805 5.53711C7.99805 4.61523 8.2207 3.88672 8.66602 3.35156C9.11523 2.8125 9.70703 2.54297 10.4414 2.54297C11.1758 2.54297 11.7656 2.80469 12.2109 3.32812C12.6602 3.85156 12.8906 4.56445 12.9023 5.4668V6.13477C12.9023 7.05273 12.6797 7.7793 12.2344 8.31445C11.7891 8.84961 11.1953 9.11719 10.4531 9.11719C9.71875 9.11719 9.12891 8.85742 8.68359 8.33789C8.24219 7.81836 8.01367 7.11523 7.99805 6.22852V5.53711ZM9.03516 6.13477C9.03516 6.78711 9.16211 7.30078 9.41602 7.67578C9.67383 8.04688 10.0195 8.23242 10.4531 8.23242C11.3672 8.23242 11.8379 7.57227 11.8652 6.25195V5.53711C11.8652 4.88867 11.7363 4.37695 11.4785 4.00195C11.2207 3.62305 10.875 3.43359 10.4414 3.43359C10.0156 3.43359 9.67383 3.62305 9.41602 4.00195C9.16211 4.37695 9.03516 4.88672 9.03516 5.53125V6.13477ZM11.9297 1.60547V1.66406H11.0977L10.3945 0.667969L9.69141 1.66406H8.85938V1.59375L10.084 0H10.6992L11.9297 1.60547ZM9.77344 10.4355C9.77344 10.2598 9.82617 10.1113 9.93164 9.99023C10.041 9.86914 10.2012 9.80859 10.4121 9.80859C10.623 9.80859 10.7832 9.86914 10.8926 9.99023C11.002 10.1113 11.0566 10.2598 11.0566 10.4355C11.0566 10.6113 11.002 10.7578 10.8926 10.875C10.7832 10.9922 10.623 11.0508 10.4121 11.0508C10.2012 11.0508 10.041 10.9922 9.93164 10.875C9.82617 10.7578 9.77344 10.6113 9.77344 10.4355Z" fill="white"/>
<path d="M15.3574 9H14.3203V2.66016H15.3574V9ZM15.4395 0.978516C15.4395 1.1543 15.3906 1.30078 15.293 1.41797C15.1953 1.53516 15.0469 1.59375 14.8477 1.59375C14.6523 1.59375 14.5059 1.53516 14.4082 1.41797C14.3105 1.30078 14.2617 1.1543 14.2617 0.978516C14.2617 0.802734 14.3105 0.654297 14.4082 0.533203C14.5059 0.412109 14.6523 0.351562 14.8477 0.351562C15.043 0.351562 15.1895 0.414062 15.2871 0.539062C15.3887 0.660156 15.4395 0.806641 15.4395 0.978516Z" fill="white"/>
<path d="M24.6445 1.39453H22.4004V9H21.3281V1.39453H19.0898V0.46875H24.6445V1.39453Z" fill="white"/>
<path d="M26.7949 3.31055C27.1895 2.79883 27.6934 2.54297 28.3066 2.54297C29.4277 2.54297 29.9961 3.29102 30.0117 4.78711V9H28.9805V4.83398C28.9805 4.33789 28.8965 3.98633 28.7285 3.7793C28.5645 3.56836 28.3164 3.46289 27.9844 3.46289C27.7266 3.46289 27.4941 3.54883 27.2871 3.7207C27.084 3.89258 26.9199 4.11719 26.7949 4.39453V9H25.7578V0H26.7949V3.31055Z" fill="white"/>
<path d="M34.8223 9C34.7598 8.86328 34.7148 8.63281 34.6875 8.30859C34.3203 8.84766 33.8516 9.11719 33.2812 9.11719C32.707 9.11719 32.2578 8.95703 31.9336 8.63672C31.6133 8.3125 31.4531 7.85742 31.4531 7.27148C31.4531 6.62695 31.6719 6.11523 32.1094 5.73633C32.5469 5.35742 33.1465 5.16406 33.9082 5.15625H34.6699V4.48242C34.6699 4.10352 34.5859 3.83398 34.418 3.67383C34.25 3.51367 33.9941 3.43359 33.6504 3.43359C33.3379 3.43359 33.084 3.52734 32.8887 3.71484C32.6934 3.89844 32.5957 4.13281 32.5957 4.41797H31.5586C31.5586 4.09375 31.6543 3.78516 31.8457 3.49219C32.0371 3.19531 32.2949 2.96289 32.6191 2.79492C32.9434 2.62695 33.3047 2.54297 33.7031 2.54297C34.3516 2.54297 34.8438 2.70508 35.1797 3.0293C35.5195 3.34961 35.6934 3.81836 35.7012 4.43555V7.63477C35.7051 8.12305 35.7715 8.54688 35.9004 8.90625V9H34.8223ZM33.4395 8.17383C33.6934 8.17383 33.9355 8.10352 34.166 7.96289C34.3965 7.82227 34.5645 7.64648 34.6699 7.43555V5.92383H34.084C33.5918 5.93164 33.2031 6.04297 32.918 6.25781C32.6328 6.46875 32.4902 6.76562 32.4902 7.14844C32.4902 7.50781 32.5625 7.76953 32.707 7.93359C32.8516 8.09375 33.0957 8.17383 33.4395 8.17383ZM34.3008 0H35.6133L34.043 1.72266H33.1699L34.3008 0Z" fill="white"/>
<path d="M38.291 2.66016L38.3203 3.3457C38.7227 2.81055 39.2363 2.54297 39.8613 2.54297C40.9824 2.54297 41.5508 3.29102 41.5664 4.78711V9H40.5352V4.83398C40.5352 4.33789 40.4512 3.98633 40.2832 3.7793C40.1191 3.56836 39.8711 3.46289 39.5391 3.46289C39.2812 3.46289 39.0488 3.54883 38.8418 3.7207C38.6387 3.89258 38.4746 4.11719 38.3496 4.39453V9H37.3125V2.66016H38.291Z" fill="white"/>
<path d="M44.1621 3.31055C44.5566 2.79883 45.0605 2.54297 45.6738 2.54297C46.7949 2.54297 47.3633 3.29102 47.3789 4.78711V9H46.3477V4.83398C46.3477 4.33789 46.2637 3.98633 46.0957 3.7793C45.9316 3.56836 45.6836 3.46289 45.3516 3.46289C45.0938 3.46289 44.8613 3.54883 44.6543 3.7207C44.4512 3.89258 44.2871 4.11719 44.1621 4.39453V9H43.125V0H44.1621V3.31055Z" fill="white"/>
<path d="M56.5781 1.39453H54.334V9H53.2617V1.39453H51.0234V0.46875H56.5781V1.39453Z" fill="white"/>
<path d="M58.8105 9H57.7734V2.66016H58.8105V9ZM58.8926 0.978516C58.8926 1.1543 58.8438 1.30078 58.7461 1.41797C58.6484 1.53516 58.5 1.59375 58.3008 1.59375C58.1055 1.59375 57.959 1.53516 57.8613 1.41797C57.7637 1.30078 57.7148 1.1543 57.7148 0.978516C57.7148 0.802734 57.7637 0.654297 57.8613 0.533203C57.959 0.412109 58.1055 0.351562 58.3008 0.351562C58.4961 0.351562 58.6426 0.414062 58.7402 0.539062C58.8418 0.660156 58.8926 0.806641 58.8926 0.978516Z" fill="white"/>
<path d="M61.4238 2.66016L61.4531 3.3457C61.8555 2.81055 62.3691 2.54297 62.9941 2.54297C64.1152 2.54297 64.6836 3.29102 64.6992 4.78711V9H63.668V4.83398C63.668 4.33789 63.584 3.98633 63.416 3.7793C63.252 3.56836 63.0039 3.46289 62.6719 3.46289C62.4141 3.46289 62.1816 3.54883 61.9746 3.7207C61.7715 3.89258 61.6074 4.11719 61.4824 4.39453V9H60.4453V2.66016H61.4238Z" fill="white"/>
<path d="M70.2363 8.08008H73.582V9H69.1582V0.46875H70.2363V8.08008Z" fill="white"/>
<path d="M77.9824 9C77.9199 8.86328 77.875 8.63281 77.8477 8.30859C77.4805 8.84766 77.0117 9.11719 76.4414 9.11719C75.8672 9.11719 75.418 8.95703 75.0938 8.63672C74.7734 8.3125 74.6133 7.85742 74.6133 7.27148C74.6133 6.62695 74.832 6.11523 75.2695 5.73633C75.707 5.35742 76.3066 5.16406 77.0684 5.15625H77.8301V4.48242C77.8301 4.10352 77.7461 3.83398 77.5781 3.67383C77.4102 3.51367 77.1543 3.43359 76.8105 3.43359C76.498 3.43359 76.2441 3.52734 76.0488 3.71484C75.8535 3.89844 75.7559 4.13281 75.7559 4.41797H74.7188C74.7188 4.09375 74.8145 3.78516 75.0059 3.49219C75.1973 3.19531 75.4551 2.96289 75.7793 2.79492C76.1035 2.62695 76.4648 2.54297 76.8633 2.54297C77.5117 2.54297 78.0039 2.70508 78.3398 3.0293C78.6797 3.34961 78.8535 3.81836 78.8613 4.43555V7.63477C78.8652 8.12305 78.9316 8.54688 79.0605 8.90625V9H77.9824ZM76.5996 8.17383C76.8535 8.17383 77.0957 8.10352 77.3262 7.96289C77.5566 7.82227 77.7246 7.64648 77.8301 7.43555V5.92383H77.2441C76.752 5.93164 76.3633 6.04297 76.0781 6.25781C75.793 6.46875 75.6504 6.76562 75.6504 7.14844C75.6504 7.50781 75.7227 7.76953 75.8672 7.93359C76.0117 8.09375 76.2559 8.17383 76.5996 8.17383ZM77.5488 1.72266H76.6172L75.1055 0H76.4121L77.5488 1.72266Z" fill="white"/>
<path d="M81.4512 2.66016L81.4805 3.3457C81.8828 2.81055 82.3965 2.54297 83.0215 2.54297C84.1426 2.54297 84.7109 3.29102 84.7266 4.78711V9H83.6953V4.83398C83.6953 4.33789 83.6113 3.98633 83.4434 3.7793C83.2793 3.56836 83.0312 3.46289 82.6992 3.46289C82.4414 3.46289 82.209 3.54883 82.002 3.7207C81.7988 3.89258 81.6348 4.11719 81.5098 4.39453V9H80.4727V2.66016H81.4512Z" fill="white"/>
<path d="M87.3223 3.31055C87.7168 2.79883 88.2207 2.54297 88.834 2.54297C89.9551 2.54297 90.5234 3.29102 90.5391 4.78711V9H89.5078V4.83398C89.5078 4.33789 89.4238 3.98633 89.2559 3.7793C89.0918 3.56836 88.8438 3.46289 88.5117 3.46289C88.2539 3.46289 88.0215 3.54883 87.8145 3.7207C87.6113 3.89258 87.4473 4.11719 87.3223 4.39453V9H86.2852V0H87.3223V3.31055Z" fill="white"/>
<path d="M97.4238 7.35352L99.375 0.46875H100.553L97.8984 9H96.9609L94.3125 0.46875H95.4844L97.4238 7.35352Z" fill="white"/>
<path d="M102.686 9H101.648V2.66016H102.686V9ZM102.768 0.978516C102.768 1.1543 102.719 1.30078 102.621 1.41797C102.523 1.53516 102.375 1.59375 102.176 1.59375C101.98 1.59375 101.834 1.53516 101.736 1.41797C101.639 1.30078 101.59 1.1543 101.59 0.978516C101.59 0.802734 101.639 0.654297 101.736 0.533203C101.834 0.412109 101.98 0.351562 102.176 0.351562C102.371 0.351562 102.518 0.414062 102.615 0.539062C102.717 0.660156 102.768 0.806641 102.768 0.978516Z" fill="white"/>
<path d="M106.588 9.11719C105.799 9.11719 105.193 8.88281 104.771 8.41406C104.35 7.94141 104.135 7.25 104.127 6.33984V5.57227C104.127 4.62695 104.332 3.88672 104.742 3.35156C105.156 2.8125 105.732 2.54297 106.471 2.54297C107.213 2.54297 107.768 2.7793 108.135 3.25195C108.502 3.72461 108.689 4.46094 108.697 5.46094V6.14062H105.158V6.28711C105.158 6.9668 105.285 7.46094 105.539 7.76953C105.797 8.07812 106.166 8.23242 106.646 8.23242C106.951 8.23242 107.219 8.17578 107.449 8.0625C107.684 7.94531 107.902 7.76172 108.105 7.51172L108.645 8.16797C108.195 8.80078 107.51 9.11719 106.588 9.11719ZM106.471 3.43359C106.041 3.43359 105.723 3.58203 105.516 3.87891C105.309 4.17188 105.191 4.62891 105.164 5.25H107.66V5.10938C107.633 4.50781 107.523 4.07812 107.332 3.82031C107.145 3.5625 106.857 3.43359 106.471 3.43359ZM107.977 1.60547V1.66406H107.145L106.441 0.667969L105.738 1.66406H104.906V1.59375L106.131 0H106.746L107.977 1.60547ZM105.785 10.4355C105.785 10.2598 105.838 10.1113 105.943 9.99023C106.053 9.86914 106.213 9.80859 106.424 9.80859C106.635 9.80859 106.795 9.86914 106.904 9.99023C107.014 10.1113 107.068 10.2598 107.068 10.4355C107.068 10.6113 107.014 10.7578 106.904 10.875C106.795 10.9922 106.635 11.0508 106.424 11.0508C106.213 11.0508 106.053 10.9922 105.943 10.875C105.838 10.7578 105.785 10.6113 105.785 10.4355Z" fill="white"/>
<path d="M111.305 1.125V2.66016H112.26V3.49805H111.305V7.42969C111.305 7.67969 111.346 7.86914 111.428 7.99805C111.51 8.12695 111.65 8.19141 111.85 8.19141C111.986 8.19141 112.125 8.16797 112.266 8.12109L112.254 9C112.02 9.07812 111.779 9.11719 111.533 9.11719C111.123 9.11719 110.811 8.9707 110.596 8.67773C110.381 8.38477 110.273 7.9707 110.273 7.43555V3.49805H109.307V2.66016H110.273V1.125H111.305Z" fill="white"/>
<path d="M121.969 9H120.891L117.475 2.42578V9H116.396V0.46875H117.475L120.902 7.07227V0.46875H121.969V9Z" fill="white"/>
<path d="M126.943 9C126.881 8.86328 126.836 8.63281 126.809 8.30859C126.441 8.84766 125.973 9.11719 125.402 9.11719C124.828 9.11719 124.379 8.95703 124.055 8.63672C123.734 8.3125 123.574 7.85742 123.574 7.27148C123.574 6.62695 123.793 6.11523 124.23 5.73633C124.668 5.35742 125.268 5.16406 126.029 5.15625H126.791V4.48242C126.791 4.10352 126.707 3.83398 126.539 3.67383C126.371 3.51367 126.115 3.43359 125.771 3.43359C125.459 3.43359 125.205 3.52734 125.01 3.71484C124.814 3.89844 124.717 4.13281 124.717 4.41797H123.68C123.68 4.09375 123.775 3.78516 123.967 3.49219C124.158 3.19531 124.416 2.96289 124.74 2.79492C125.064 2.62695 125.426 2.54297 125.824 2.54297C126.473 2.54297 126.965 2.70508 127.301 3.0293C127.641 3.34961 127.814 3.81836 127.822 4.43555V7.63477C127.826 8.12305 127.893 8.54688 128.021 8.90625V9H126.943ZM125.561 8.17383C125.814 8.17383 126.057 8.10352 126.287 7.96289C126.518 7.82227 126.686 7.64648 126.791 7.43555V5.92383H126.205C125.713 5.93164 125.324 6.04297 125.039 6.25781C124.754 6.46875 124.611 6.76562 124.611 7.14844C124.611 7.50781 124.684 7.76953 124.828 7.93359C124.973 8.09375 125.217 8.17383 125.561 8.17383Z" fill="white"/>
<path d="M130.412 2.66016L130.436 3.24609C130.822 2.77734 131.332 2.54297 131.965 2.54297C132.672 2.54297 133.166 2.84961 133.447 3.46289C133.846 2.84961 134.4 2.54297 135.111 2.54297C136.279 2.54297 136.877 3.27148 136.904 4.72852V9H135.873V4.82812C135.873 4.36719 135.791 4.02539 135.627 3.80273C135.463 3.57617 135.186 3.46289 134.795 3.46289C134.482 3.46289 134.229 3.58398 134.033 3.82617C133.838 4.06836 133.725 4.37695 133.693 4.75195V9H132.65V4.78125C132.639 3.90234 132.281 3.46289 131.578 3.46289C131.055 3.46289 130.686 3.72461 130.471 4.24805V9H129.439V2.66016H130.412Z" fill="white"/>
</svg>
